<svg width="48" height="32" viewBox="0 0 48 32" fill="none" xmlns="http://www.w3.org/2000/svg">
<rect width="48" height="32" rx="4" fill="#1A1F71"/>
<path d="M20.5714 21H17.9062L15.8348 13.6071C15.7411 13.2857 15.5446 13.0089 15.2768 12.8661C14.6071 12.5357 13.8661 12.2768 13.0536 12.1339V11.8571H17.3571C17.9598 11.8571 18.4196 12.3214 18.4911 12.8571L19.5179 18.4821L21.9911 11.8571H24.5893L20.5714 21ZM26.0625 21H23.5357V11.8571H26.0625V21ZM31.4821 14.3482C31.5536 13.8125 31.9419 13.5 32.4732 13.5C33.2768 13.4286 34.1518 13.5714 34.8839 13.9286L35.3482 11.9286C34.6161 11.6429 33.8125 11.5 33.0804 11.5C30.6429 11.5 28.9018 12.75 28.9018 14.5C28.9018 15.8214 30.1429 16.5 31.0446 16.9286C31.9732 17.3571 32.3304 17.6429 32.2589 18.0714C32.2589 18.7143 31.5179 19 30.8571 19C30.0446 19 29.2321 18.7857 28.5 18.4286L28.0357 20.4286C28.8482 20.7857 29.7321 20.9286 30.5446 20.9286C33.2143 21 34.8839 19.75 34.8839 17.8571C34.8839 15.4286 31.4821 15.2857 31.4821 14.3482ZM44 21H41.7589L39.4643 11.8571H37.2232C36.6964 11.8571 36.2411 12.2143 36.0714 12.7143L32.4018 21H35L35.5357 19.5H38.8571L39.1786 21H41.4286L44 21ZM36.2143 17.5714L37.3125 14.5714L37.9732 17.5714H36.2143Z" fill="white"/>
</svg>